<?xml version="1.0" encoding="utf-8"?>
<!-- Generator: Adobe Illustrator 25.0.0, SVG Export Plug-In . SVG Version: 6.00 Build 0)  -->
<svg version="1.1" id="Layer_1" xmlns="http://www.w3.org/2000/svg" xmlns:xlink="http://www.w3.org/1999/xlink" x="0px" y="0px"
	 viewBox="0 0 360 360" style="enable-background:new 0 0 360 360;" xml:space="preserve">
<style type="text/css">
	.st0{fill:#95D82B;}
	.st1{fill:#1875BB;}
</style>
<g>
	<g>
		<path class="st0" d="M167.23,104.46h-7.03c-15.54,0-28.13-12.59-28.13-28.13V69.3h7.03c15.54,0,28.13,12.59,28.13,28.13V104.46z"
			/>
		<path class="st0" d="M202.11,103.92h7.03c15.54,0,28.13-12.59,28.13-28.13v-7.03h-7.03c-15.54,0-28.13,12.59-28.13,28.13V103.92z"
			/>
		<path class="st0" d="M202.53,74.96l0.58-0.03c5.57-0.31,9.84-5.07,9.53-10.65l-0.27-4.81l-0.58,0.03
			c-5.57,0.31-9.84,5.07-9.53,10.65L202.53,74.96z"/>
		<path class="st0" d="M231.61,101.76l0.52,0.27c4.96,2.56,11.05,0.61,13.61-4.35l2.21-4.28l-0.52-0.27
			c-4.96-2.56-11.05-0.61-13.61,4.35L231.61,101.76z"/>
		<path class="st0" d="M138.27,101.22l-0.52,0.27c-4.96,2.56-11.05,0.61-13.61-4.35l-2.21-4.28l0.52-0.27
			c4.96-2.56,11.05-0.61,13.61,4.35L138.27,101.22z"/>
		<path class="st0" d="M142.77,137.25l-0.18,0.56c-1.7,5.32-7.38,8.25-12.7,6.55l-4.59-1.47l0.18-0.56c1.7-5.32,7.38-8.25,12.7-6.55
			L142.77,137.25z"/>
		<path class="st0" d="M227.62,137.25l0.18,0.56c1.7,5.32,7.38,8.25,12.7,6.55l4.59-1.47l-0.18-0.56c-1.7-5.32-7.38-8.25-12.7-6.55
			L227.62,137.25z"/>
		<path class="st0" d="M166.24,74.95l-0.58-0.03c-5.57-0.31-9.84-5.07-9.53-10.65l0.27-4.81l0.58,0.03
			c5.57,0.31,9.84,5.07,9.53,10.65L166.24,74.95z"/>
		<path class="st0" d="M183.68,96.89l4.97-4.97c10.99-10.99,10.99-28.8,0-39.78l-4.97-4.97l-4.97,4.97
			c-10.99,10.99-10.99,28.8,0,39.78L183.68,96.89z"/>
		<path class="st0" d="M154.38,121.22l-4.39-5.5c-9.69-12.15-27.39-14.14-39.53-4.45l-5.5,4.39l4.39,5.5
			c9.69,12.15,27.39,14.14,39.53,4.45L154.38,121.22z"/>
		<path class="st0" d="M213.54,121.22l4.39-5.5c9.69-12.15,27.39-14.14,39.53-4.45l5.5,4.39l-4.39,5.5
			c-9.69,12.15-27.39,14.14-39.53,4.45L213.54,121.22z"/>
		<path class="st0" d="M179.81,110.17l-2.32-0.72c-4.84-1.49-7.56-6.63-6.06-11.48l0.72-2.32l2.32,0.72
			c4.84,1.49,7.56,6.63,6.06,11.48L179.81,110.17z"/>
		<path class="st0" d="M189.59,110.01l2.32-0.72c4.84-1.49,7.56-6.63,6.06-11.48l-0.72-2.32l-2.32,0.72
			c-4.84,1.49-7.56,6.63-6.06,11.48L189.59,110.01z"/>
		<path class="st0" d="M198.45,118.23l2.27,0.86c4.74,1.79,10.04-0.6,11.83-5.35l0.86-2.27l-2.27-0.86
			c-4.74-1.79-10.04,0.6-11.83,5.35L198.45,118.23z"/>
		<path class="st0" d="M169.27,118.09l-2.27,0.86c-4.74,1.79-10.04-0.6-11.83-5.35l-0.86-2.27l2.27-0.86
			c4.74-1.79,10.04,0.6,11.83,5.35L169.27,118.09z"/>
	</g>
</g>
<g>
	<g>
		<ellipse class="st1" cx="183.23" cy="134.34" rx="15.2" ry="15.62"/>
		<g>
			<path class="st1" d="M175.72,154.91c-0.79,0.09-1.61,0.36-2.38,0.25c-16.47-2.38-28.69,11.25-24.91,27.61
				c2,8.65,7.24,14.91,14.07,19.97c5.24,3.89,10.84,7.3,16.5,11.08c-2.13,1.6-4.29,3.28-6.54,4.83c-0.39,0.27-1.3,0.15-1.78-0.12
				c-10.29-5.74-20.15-12.07-26.63-22.27c-4.79-7.53-7.55-15.61-5.06-24.77c3.91-14.35,19.57-23.17,33.73-18.82
				c1.09,0.33,2.09,0.95,3.13,1.43C175.81,154.36,175.77,154.63,175.72,154.91z"/>
			<path class="st1" d="M222.41,195.89c-5.79,9.09-14.23,15.11-23.3,20.38c-0.22,0.14-0.48,0.27-0.7,0.42
				c-2.01,1.04-3.72,1.94-5.07,2.64c-5.49,2.88-7.08,3.81-8.69,4.9c-1.73,1.19-3.17,2.32-3.17,2.32c-0.73,0.55-1.45,1.11-2.15,1.7
				c-0.15,0.13-0.32,0.28-0.51,0.42c-0.2,0.15-0.41,0.32-0.6,0.52c-0.01,0-0.01,0.01-0.01,0.01c-2.08,1.77-4.07,3.65-5.93,5.65
				c-0.76,0.76-1.5,1.52-2.18,2.33c-0.51,0.56-0.97,1.15-1.4,1.76c-7.53,10.28-5.95,21.22,3.83,29.35c2.37,1.98,4.96,3.69,7.4,5.58
				c1.17,0.88,2.36,1.74,3.55,2.61c1.03-0.76,2.05-1.5,3.05-2.26c2.47-1.88,5.04-3.6,7.41-5.58c9.79-8.13,11.36-19.07,3.83-29.36
				c-2.65-3.62-6.29-6.56-9.54-9.75c-0.91-0.88-2.02-1.56-3.36-2.56c2.4-1.46,4.51-2.84,6.7-4.03c0.51-0.27,1.54-0.18,1.99,0.18
				c9.24,7.3,15.92,16.08,16.25,28.48c0.22,8.97-3.74,15.98-10.52,21.35c-3.37,2.68-6.95,5.07-10.57,7.4
				c1.49,1.15,2.92,2.35,4.28,3.62c8.13,7.68,9.94,17.78,5.48,27.79c-1.47,3.31-3.68,6.11-6.52,8.31c-0.25-0.2-0.49-0.39-0.74-0.6
				c0.58-0.81,1.15-1.64,1.71-2.46c2.96-4.35,4.28-9.11,3.59-14.38c-1.15-8.66-6.32-14.34-13.06-18.93
				c-6.97,4.66-12.37,10.39-13.55,19.29c-0.69,5.25,0.62,10.01,3.59,14.35c0.56,0.83,1.14,1.66,1.71,2.47
				c-0.25,0.21-0.49,0.41-0.74,0.6c-2.84-2.2-5.04-5-6.53-8.33c-4.45-10-2.64-20.1,5.49-27.78c1.5-1.42,3.1-2.74,4.76-4
				c-3.79-2.43-7.56-4.93-11.07-7.71c-6.77-5.38-10.73-12.4-10.5-21.36c0.04-1.24,0.13-4.72,1.46-8.92
				c2.93-9.23,9.7-15.1,14.23-19.04c1.33-1.15,2.46-2.04,3.15-2.56c1.22-0.87,2.46-1.73,3.74-2.57c4.25-2.84,8.44-5.31,12.47-7.47
				c4.21-2.75,8.34-5.39,12.27-8.31c6.82-5.06,12.06-11.33,14.07-19.97c3.78-16.36-8.45-29.98-24.91-27.61
				c-0.76,0.11-1.59-0.15-2.37-0.25c-0.04-0.27-0.08-0.55-0.13-0.8c1.04-0.51,2.05-1.11,3.13-1.45
				c14.16-4.34,29.81,4.47,33.73,18.83C229.96,180.29,227.2,188.37,222.41,195.89z"/>
		</g>
	</g>
</g>
</svg>
