<?xml version="1.0" encoding="UTF-8"?> <svg xmlns="http://www.w3.org/2000/svg" version="1.2" viewBox="0 0 828 129" width="828" height="129"><title>Kalyan Banerjee's_Final Logo-01-svg</title><style> .s0 { fill: #000000 } </style><g id="Layer"><g id="Layer"><path id="Layer" fill-rule="evenodd" class="s0" d="m214.8 14.9c10.8 0 17.5 2.1 22.2 6.6 3.8 3.7 6.5 9 6.5 16.3 0 8.9-3.6 16.1-9.5 20.5-5.8 4.3-13.1 6-22.5 6h-17.8v-2.1c6.6-0.6 6.9-1.2 6.9-7.4v-30.3c0-6.6-1-6.9-6.9-7.5v-2.1zm-7.7 39.3c0 5.7 2.5 7.3 8.2 7.3 13.6 0 20.6-9.3 20.6-22.7 0-8.2-2.8-14.5-8.8-18.2-3.5-2.2-7.9-3-13-3-3.4 0-5.2 0.4-6 1-0.7 0.5-1 1.3-1 4.3v31.3z"></path><path id="Layer" class="s0" d="m267.1 64.3h-17.5v-2.1c4.8-0.5 5.2-0.9 5.2-5.8v-15.8c0-5-0.3-5.3-4.7-5.8v-1.9c3.8-0.6 7.2-1.5 10.8-3.1l-0.1 8.3c2.7-3.9 5.9-8.1 9.7-8.1 2.8 0 4.4 1.8 4.4 3.7 0 1.7-1.2 3.4-2.6 4.1-0.7 0.5-1.3 0.4-2-0.1-1.1-1.1-2-1.9-3.4-1.9-1.6 0-4.4 2.4-6.1 6.2v14.3c0 5 0.4 5.4 6.3 5.9v2.1z"></path><path id="Layer" class="s0" d="m279.5 65.4c-2.8 0-4.7-2-4.7-4.9 0-2.7 1.9-4.8 4.7-4.8 2.7 0 4.8 2.1 4.8 4.8 0 2.9-2.1 4.9-4.8 4.9z"></path><path id="Layer" class="s0" d="m308.8 14.9h20.3v2.1c-5.9 0.6-7 1.1-7 7.9v13c1.5-0.1 3.3-1.3 5.5-3.5 4.2-4 9.3-9.2 12.8-13.1 2.3-2.6 2.1-3.6-1.2-4.1l-2.1-0.2v-2.1h18.5v2.1c-5.7 0.7-7.7 1.1-12.8 6.3-2.3 2.2-8.2 8-13.1 12.8 5.8 6.8 14.2 16.6 18.2 20.7 3.9 4.2 4.8 4.8 9.6 5.4v2.1h-12.2c-5.8-6.6-12-14-18.9-22-1.8-2.2-3.1-2.3-4.3-2.2v14.4c0 6.6 0.7 7.1 7 7.7v2.1h-20.3v-2.1c6.2-0.6 6.8-1.1 6.8-7.7v-29.7c0-6.8-0.5-7.3-6.8-7.8v-2.1z"></path><path id="Layer" fill-rule="evenodd" class="s0" d="m385.3 65.2c-1.1 0-2.8-0.6-3.5-1.4-1-1-1.5-2.1-1.9-3.4-3 2-6.7 4.8-9.1 4.8-5.4 0-9.2-4.5-9.2-9.3 0-3.8 2-6.2 6.2-7.6 4.6-1.6 10.3-3.6 12-5v-1.5c0-5.4-2.7-8.5-6.7-8.5-1.7 0-2.8 0.8-3.6 1.8-0.8 1-1.3 2.7-2 4.9-0.4 1.2-1.1 1.7-2.2 1.7-1.4 0-3.3-1.5-3.3-3.3 0-1.1 0.9-2 2.5-3 2.2-1.6 6.6-4.5 10.9-5.4 2.3 0 4.6 0.7 6.4 2.1 2.7 2.3 3.9 4.8 3.9 8.8v14.7c0 3.5 1.3 4.5 2.6 4.5 0.9 0 1.9-0.3 2.8-0.8l0.7 2.1-6.4 3.8zm-5.6-19.2q0 0 0 0zm-7 3.2c-2.9 1.3-4.7 2.7-4.7 5.5 0 4.1 3.1 5.9 5.5 5.9 2 0 4.7-1.2 6.2-2.7v-11.9c-1.7 0.9-5.3 2.4-7 3.2z"></path><path id="Layer" class="s0" d="m393.9 64.3v-2.1c4.8-0.5 5.4-0.9 5.4-5.9v-36.4c0-4.6-0.3-5.1-5.2-5.7v-2c4.1-0.4 8.8-1.6 11.2-2.5v46.6c0 5.1 0.5 5.4 5.4 5.9v2.1z"></path><path id="Layer" class="s0" d="m448.1 33c-4 0.6-4.8 1.2-6.7 5.5-1.9 4.3-4 9.5-9.2 22.7-5 12.1-6.3 16.9-7.5 20.8-0.5 1.6-1.3 2-2.3 2-2.5 0-4.7-1.8-4.7-3.7 0-0.9 0.6-1.6 1.7-2.6 2.4-1.9 4.2-3.7 5.1-5.6 1.6-3.2 2.7-5.9 3.1-6.9 0.3-1.1 0.3-1.8-0.1-3.1-3-8.7-7.1-18-9.4-23.5-1.7-4.2-2.3-5.1-6.5-5.6v-2.1h15.3v2.1c-3.5 0.5-3.9 1.3-2.9 4.1l7.4 18.7c2.1-5.3 5.2-13.7 6.8-18.5 0.9-2.9 0.4-3.7-4.1-4.3v-2.1h14v2.1z"></path><path id="Layer" fill-rule="evenodd" class="s0" d="m474.4 65.2c-1.2 0-2.9-0.6-3.6-1.4-1-1-1.5-2.1-1.8-3.4-3.1 2-6.8 4.8-9.2 4.8-5.4 0-9.2-4.5-9.2-9.3 0-3.8 2-6.2 6.2-7.6 4.6-1.6 10.3-3.6 12-5v-1.5c0-5.4-2.7-8.5-6.7-8.5-1.7 0-2.8 0.8-3.5 1.8-0.9 1-1.4 2.7-2.1 4.9-0.4 1.2-1.1 1.7-2.2 1.7-1.4 0-3.3-1.5-3.3-3.3 0-1.1 1-2 2.5-3 2.2-1.6 6.6-4.5 10.9-5.4 2.3 0 4.7 0.7 6.4 2.1 2.7 2.3 3.9 4.8 3.9 8.8v14.7c0 3.5 1.3 4.5 2.6 4.5 1 0 1.9-0.3 2.8-0.8l0.7 2.1-6.4 3.8zm-5.6-19.2q0 0 0 0zm-7 3.2c-2.9 1.3-4.7 2.7-4.7 5.5 0 4.1 3.1 5.9 5.5 5.9 2 0 4.7-1.2 6.2-2.7v-11.9c-1.6 0.9-5.3 2.4-7 3.2z"></path><path id="Layer" class="s0" d="m505.8 64.3v-2.1c4.4-0.5 4.9-1 4.9-6.2v-12.5c0-5.3-1.9-8.9-6.9-8.9-3.1 0-6.1 1.8-8.5 3.9v17.8c0 5.3 0.5 5.4 5 5.9v2.1h-16.4v-2.1c5-0.5 5.4-0.9 5.4-5.9v-15.6c0-5-0.5-5.2-4.6-5.9v-2c3.7-0.6 7.4-1.6 10.6-3v6c1.5-1 3.2-2.2 5.2-3.5 2.1-1.4 4.1-2.3 6.3-2.3 6.1 0 9.9 4.5 9.9 11.9v14.4c0 5.2 0.4 5.4 4.8 5.9v2.1h-15.7z"></path><path id="Layer" fill-rule="evenodd" class="s0" d="m570.7 37.6q0 0 0 0 0 0 0-0.1zm13.2 12.1c0 5.2-2.9 9.3-7.4 11.7-3.9 2.2-7.8 3-13.1 3h-18.7v-2.1c6.4-0.6 6.8-1.3 6.8-7.3v-30.5c0-6.3-0.7-6.8-6.8-7.4v-2.1h19.9c5.7 0 9.2 1 11.7 2.7 2.6 1.8 4.5 4.6 4.5 8.5 0 7.1-5.9 10.4-10.1 11.4 7.3 1.3 13.2 4.8 13.2 12.1zm-22-13c8.4 0 11.8-3.3 11.8-9.6 0-5.3-3.3-9.4-10.6-9.4-2.1 0-3.5 0.2-4.2 0.8-0.7 0.4-0.9 1.3-0.9 3.7v14.5h3.9zm-3.9 18.1c0 5.5 1.3 6.8 6.7 6.8 5.9 0 11.7-3.1 11.7-11.1 0-8-5.5-11.1-14.7-11.1h-3.7z"></path><path id="Layer" fill-rule="evenodd" class="s0" d="m614.8 65.2c-1.1 0-2.8-0.6-3.5-1.4-1-1-1.5-2.1-1.9-3.4-3 2-6.7 4.8-9.1 4.8-5.4 0-9.3-4.5-9.3-9.3 0.1-3.8 2.1-6.2 6.3-7.6 4.6-1.6 10.3-3.6 12-5v-1.5c0-5.4-2.7-8.5-6.7-8.5-1.8 0-2.8 0.8-3.6 1.8-0.8 1-1.3 2.7-2 4.9-0.4 1.2-1.1 1.7-2.2 1.7-1.5 0-3.4-1.5-3.4-3.3 0-1.1 1-2 2.5-3 2.2-1.6 6.7-4.5 11-5.4 2.3 0 4.6 0.7 6.4 2.1 2.6 2.3 3.9 4.8 3.9 8.8v14.7c0 3.5 1.2 4.5 2.6 4.5 0.9 0 1.9-0.3 2.8-0.8l0.7 2.1-6.4 3.8zm-5.6-19.2q0 0 0 0zm-7.1 3.2c-2.8 1.3-4.6 2.7-4.6 5.5 0 4.1 3 5.9 5.5 5.9 2 0 4.7-1.2 6.2-2.7v-11.9c-1.7 0.9-5.3 2.4-7.1 3.2z"></path><path id="Layer" class="s0" d="m646.3 64.3v-2.1c4.4-0.5 4.9-1 4.9-6.2v-12.5c0-5.3-1.9-8.9-7-8.9-3.1 0-6 1.8-8.4 3.9v17.8c0 5.3 0.5 5.4 4.9 5.9v2.1h-16.4v-2.1c5-0.5 5.5-0.9 5.5-5.9v-15.6c0-5-0.5-5.2-4.6-5.9v-2c3.7-0.6 7.4-1.6 10.6-3v6c1.5-1 3.2-2.2 5.2-3.5 2.1-1.4 4.1-2.3 6.3-2.3 6.1 0 9.9 4.5 9.9 11.9v14.4c0 5.2 0.4 5.4 4.8 5.9v2.1h-15.7z"></path><path id="Layer" fill-rule="evenodd" class="s0" d="m694.1 57.8c-4.9 6.1-10.2 7.4-12.6 7.4-9.3 0-14.9-7.6-14.9-16.3 0-5.2 1.8-10 4.9-13.3 3.2-3.6 7.4-5.6 11.4-5.6 6.6 0 11.6 5.7 11.6 11.8-0.1 1.5-0.3 2.2-1.5 2.5-1.5 0.3-11.3 1-20.3 1.3-0.3 10.2 6 14.4 11.4 14.4 3.1 0 6-1.3 8.8-3.9zm-13.1-24.9c-3.5 0-6.9 3.2-8 9.4 4.3 0 8.6 0 13-0.2 1.4 0 1.9-0.4 1.9-1.5 0-4.1-2.6-7.7-6.9-7.7z"></path><path id="Layer" class="s0" d="m716.5 64.3h-17.5v-2.1c4.8-0.5 5.3-0.9 5.3-5.8v-15.8c0-5-0.3-5.3-4.7-5.8v-1.9c3.7-0.6 7.1-1.5 10.7-3.1v8.3c2.7-3.9 5.9-8.1 9.7-8.1 2.8 0 4.4 1.8 4.4 3.7 0 1.7-1.3 3.4-2.6 4.1-0.8 0.5-1.4 0.4-2-0.1-1.1-1.1-2-1.9-3.4-1.9-1.6 0-4.4 2.4-6.1 6.2v14.3c0 5 0.4 5.4 6.2 5.9v2.1z"></path><path id="Layer" class="s0" d="m728.3 32.8c4.1-0.6 7.9-1.6 11.2-2.9v26.1c0 5-0.3 8.2-1.8 12.3-2.6 7.6-7.3 13.3-9.1 14.9-0.8 0.6-1.4 0.8-2 0.8-1.1 0-2.8-1.6-2.8-3.4 0-1 0.3-1.5 1.2-1.8 2.8-0.7 4.8-1.5 5.9-2.9 0.9-1 1.5-2.7 2-5.3 0.4-3.2 0.6-7.7 0.6-14.7v-15.1c0-5.1-0.4-5.4-5.2-6.1zm7.8-10.5c-2.1 0-3.8-1.8-3.8-3.9 0-2.4 1.7-4 3.9-4 2.1 0 3.7 1.6 3.7 4 0 2-1.6 3.9-3.8 3.9z"></path><path id="Layer" fill-rule="evenodd" class="s0" d="m775.8 57.8c-4.9 6.1-10.2 7.4-12.7 7.4-9.2 0-14.9-7.6-14.9-16.3 0-5.2 1.9-10 5-13.3 3.2-3.6 7.3-5.6 11.3-5.6 6.6 0 11.6 5.7 11.6 11.8 0 1.5-0.3 2.2-1.5 2.5-1.5 0.3-11.2 1-20.3 1.3-0.2 10.2 6 14.4 11.4 14.4 3.1 0 6-1.3 8.8-3.9zm-13-24.9c-3.5 0-7 3.2-8 9.4 4.2 0 8.5 0 13-0.2 1.4 0 1.8-0.4 1.8-1.5 0.1-4.1-2.6-7.7-6.8-7.7z"></path><path id="Layer" fill-rule="evenodd" class="s0" d="m809.3 57.8c-4.9 6.1-10.2 7.4-12.6 7.4-9.3 0-14.9-7.6-14.9-16.3 0-5.2 1.8-10 4.9-13.3 3.2-3.6 7.4-5.6 11.3-5.6 6.6 0 11.7 5.7 11.7 11.8-0.1 1.5-0.3 2.2-1.6 2.5-1.5 0.3-11.2 1-20.3 1.3-0.2 10.2 6 14.4 11.4 14.4 3.2 0 6-1.3 8.9-3.9zm-13.1-24.9c-3.5 0-6.9 3.2-8 9.4 4.3 0 8.5 0 13-0.2 1.4 0 1.8-0.4 1.8-1.5 0.1-4.1-2.6-7.7-6.8-7.7z"></path></g><g id="Layer"><path id="Layer" class="s0" d="m450.7 110.5c-0.5 1.6-1.3 3.9-1.8 5-0.8 0.2-3.3 0.8-5.7 0.8-8.3 0-11.8-5.3-11.8-10.3 0-6.4 4.9-10.7 12.4-10.7 2.7 0 5.1 0.6 5.8 0.7 0.2 1.5 0.4 3.8 0.6 5.1l-1.2 0.3c-0.7-2.5-1.6-3.6-3.2-4.3-0.8-0.3-1.9-0.4-2.7-0.4-4.5 0-6.8 3.8-6.8 8.6 0 5.7 2.9 9.6 7.2 9.6 2.6 0 4.3-1.4 6-4.8l1.2 0.5z"></path><path id="Layer" class="s0" d="m475.4 110.4c-0.3 1.4-1.2 4.6-1.4 5.5h-15.4v-1.2c2.7-0.2 2.9-0.4 2.9-3v-11.8c0-2.6-0.3-2.9-2.6-3.1v-1.1h9.7v1.1c-2.4 0.3-2.7 0.5-2.7 3.1v12c0 1.8 0 2.5 1.7 2.6 0.1 0 1.5 0 1.6 0 1.8 0 2.3-0.4 3-1.2 0.6-0.6 1.4-2 2-3.2z"></path><path id="Layer" class="s0" d="m482.4 115.9v-1.2c2.4-0.2 2.6-0.4 2.6-3v-11.8c0-2.6-0.3-2.9-2.6-3.1v-1.1h9.6v1.1c-2.3 0.3-2.7 0.5-2.7 3.1v11.8c0 2.6 0.3 2.8 2.7 3v1.2z"></path><path id="Layer" class="s0" d="m521.9 96.8c-1.9 0.3-2.5 0.7-2.6 2.1-0.1 1.2-0.2 2.3-0.2 5v12.3h-1.8l-12.9-15.5v7c0 2.7 0.1 3.9 0.1 4.8 0.2 1.4 0.8 2.1 3.1 2.2v1.2h-7.7v-1.2c1.8-0.1 2.6-0.6 2.7-2 0.2-1.2 0.2-2.3 0.2-5v-7.3c0-1.1 0-1.8-0.6-2.6-0.6-0.7-1.3-0.8-2.6-0.9v-1.2h6l11.9 13.8v-5.6c0-2.7-0.1-3.8-0.2-4.9-0.1-1.3-0.6-2-3.1-2.1v-1.2h7.6v1.2z"></path><path id="Layer" class="s0" d="m529.4 115.9v-1.2c2.3-0.2 2.6-0.4 2.6-3v-11.8c0-2.6-0.3-2.9-2.6-3.1v-1.1h9.6v1.1c-2.4 0.3-2.7 0.5-2.7 3.1v11.8c0 2.6 0.3 2.8 2.7 3v1.2z"></path><path id="Layer" class="s0" d="m566.5 110.5c-0.4 1.6-1.2 3.9-1.7 5-0.8 0.2-3.4 0.8-5.7 0.8-8.4 0-11.8-5.3-11.8-10.3 0-6.4 4.9-10.7 12.3-10.7 2.7 0 5.1 0.6 5.9 0.7 0.1 1.5 0.4 3.8 0.6 5.1l-1.3 0.3c-0.6-2.5-1.5-3.6-3.2-4.3-0.7-0.3-1.9-0.4-2.7-0.4-4.5 0-6.8 3.8-6.8 8.6 0 5.7 3 9.6 7.2 9.6 2.6 0 4.4-1.4 6-4.8l1.2 0.5z"></path></g><path id="Layer" class="s0" d="m809.6 107h-225.7c-0.7 0-1.2-0.5-1.2-1.2 0-0.7 0.5-1.2 1.2-1.2h225.7c0.7 0 1.3 0.5 1.3 1.2 0 0.7-0.6 1.2-1.3 1.2z"></path><path id="Layer" class="s0" d="m414.8 107h-221.1c-0.7 0-1.2-0.5-1.2-1.2 0-0.7 0.5-1.2 1.2-1.2h221.1c0.7 0 1.2 0.5 1.2 1.2 0 0.7-0.5 1.2-1.2 1.2z"></path></g><path id="Layer" class="s0" d="m166.9 82.5c-0.3-2.3-1-4.6-2-6.8-2.8-5.8-7.6-10.7-13.5-13.4-2.7-1.1-5.7-1.8-8.6-1.8-1.2 1.9-2.6 4.1-4.2 6.3 7.6 4.5 12.5 13.6 11.6 22.5-1 11.1-10.1 19.2-21 21.6-11.8 2.7-23.6-1.2-31.1-10.2q-4.8-5.4-9.9-11.1-1.5-1.6-2.9-3.3c-4.4-4.9-8.6-9.6-12.5-14q-5.8-6.6-10.1-11.4-4.2-4.9-5.4-6.4 2.5-2.6 5.5-5.6 3-3 6.1-6.2 3.2-3.2 6.4-6.5 3.2-3.2 6.3-6 3.2-2.9 6.3-5.6c3.1-2.6 13.2-11.6 23.2-11.8 5.7-0.1 11.3 2 15.3 5.9 3.1 3 5.7 7.4 3.8 13.1-0.9 2.1-2.5 4.3-5.4 6.4-6.6 4.5-13.4 9-18.7 15.1-5.8 6.7-7.1 14.9-7.5 23.5-0.3 6.7 0.4 14.9 4 20.8 3.3-18.4 18-20 30.5-32.8q1.1-1.2 2.1-2.4c6.7-8.9 5.2-18.8 3.7-23.7 0 0-8.5 4-16.1 9.3-7 4.9-14.4 11-17.3 16.6 1.2-2.6 5.6-10.2 18.2-19.1 0.4-0.4 2.4-1.8 3.9-2.9 2.1-1.5 4-3.4 5.5-5.6 1.2-1.8 2.3-4 2.8-6.4q0-0.5 0.1-0.9 0-0.2 0-0.3 0.1-0.9 0-1.8c-0.4-7.8-10.8-17.6-21.8-17.6-0.4 0-41.3-0.1-41.3-0.1v1.2q3.8 0.6 6.8 2.5 2.9 1.9 2.9 6.1 0 2.5-2 5.6-2 3-4.4 6-3.5 3.8-8.4 8.9c-3.2 3.4-6.4 6.7-9.7 9.9q-4.9 4.8-9.3 8.7-4.5 3.9-7.1 5.5v-22.7q0-3.8 0.1-6.7c0-1.9 0.1-4 0.2-6.3q0.1-6.1 1.5-9.5 1.4-3.3 3.4-5 2.1-1.7 4.7-2.2c1.8-0.3 5.3-0.6 7.1-0.8v-1.5h-49.1v1.5q3.8 0.4 6.7 1.6 2.9 1.2 5 3.6 1.6 2.1 1.9 6.8 0.4 4.7 0.4 10.2v45.6q0 4-0.1 7.6-0.1 3.5-0.1 5.5c0 1.6 0 3.2 0 4.9q-0.1 2.6-0.3 4.8-0.2 2.3-0.7 4-0.4 1.8-1.1 2.7c-1.2 1.3-2.9 2.4-5.1 3.2-2.3 0.8-4.6 1.3-7.1 1.7v1.5h49.6v-1.5c-1 0-2.6-0.2-4-0.5-1.3-0.2-2.6-0.6-4-1q-2-0.7-3.8-1.7-1.7-1-2.7-2.5-1.5-1.9-1.9-5.5-0.5-3.7-0.6-7.9-0.2-4.8-0.2-11.5v-14.5q0.5-1.2 0.8-1.7 0.4-0.5 1.6-0.5 1 0 2.4 1 1.4 1.1 5.2 5.3c6 6.6 11.8 13.1 17.4 19.6 1.2 1.3 2.9 3.3 4.8 5.5 9.9 11.1 24.1 17.4 38.9 17.4 0 0 19.8 0.1 24.3-0.2 4.6-0.2 8.8-1.3 12.5-2.7q3.2-1.2 6.4-3.4c8.3-5.9 12.8-15.8 11.1-26z"></path></svg> 