<?xml version="1.0" encoding="utf-8"?>
<!-- Generator: Adobe Illustrator 25.0.0, SVG Export Plug-In . SVG Version: 6.00 Build 0)  -->
<svg version="1.1" id="Layer_1" xmlns="http://www.w3.org/2000/svg" xmlns:xlink="http://www.w3.org/1999/xlink" x="0px" y="0px"
	 viewBox="0 0 360 360" style="enable-background:new 0 0 360 360;" xml:space="preserve">
<style type="text/css">
	.st0{fill:#1875BB;}
	.st1{fill:#95D82B;}
	.st2{fill:none;stroke:#1875BB;stroke-width:1.0712;stroke-linecap:round;stroke-miterlimit:10;}
</style>
<g>
	<g>
		<g>
			<g>
				<path class="st0" d="M43.21,185.03c-1.62,0-3.17-0.2-4.66-0.6c-1.48-0.4-2.68-0.91-3.59-1.52l1.82-4.11
					c0.88,0.56,1.89,1.02,3.03,1.38s2.29,0.54,3.43,0.54c0.78,0,1.4-0.06,1.86-0.2c0.46-0.13,0.79-0.32,1.01-0.56
					c0.21-0.24,0.32-0.53,0.32-0.87c0-0.43-0.21-0.77-0.62-1.02c-0.41-0.25-0.95-0.47-1.61-0.64c-0.66-0.18-1.38-0.34-2.15-0.5
					c-0.77-0.16-1.56-0.37-2.36-0.63c-0.8-0.26-1.53-0.61-2.18-1.03c-0.65-0.43-1.18-0.99-1.58-1.68c-0.4-0.69-0.6-1.56-0.6-2.6
					c0-1.16,0.32-2.21,0.95-3.16s1.59-1.71,2.88-2.29c1.29-0.58,2.89-0.87,4.81-0.87c1.29,0,2.55,0.14,3.79,0.43
					c1.24,0.29,2.33,0.72,3.29,1.3l-1.68,4.08c-0.93-0.52-1.86-0.9-2.77-1.15c-0.91-0.24-1.8-0.36-2.66-0.36
					c-0.76,0-1.38,0.08-1.85,0.25c-0.47,0.17-0.8,0.38-1.01,0.64c-0.21,0.26-0.31,0.54-0.31,0.84c0,0.45,0.21,0.8,0.62,1.05
					c0.41,0.25,0.94,0.46,1.59,0.62c0.65,0.16,1.37,0.32,2.17,0.49c0.79,0.17,1.58,0.38,2.36,0.63c0.78,0.25,1.51,0.59,2.17,1.01
					s1.2,0.97,1.61,1.65c0.41,0.68,0.62,1.53,0.62,2.56c0,1.14-0.32,2.19-0.96,3.15s-1.61,1.73-2.89,2.31
					C46.76,184.74,45.15,185.03,43.21,185.03z"/>
				<path class="st0" d="M64.85,185.03c-2.89,0-5.14-0.79-6.75-2.38c-1.61-1.58-2.42-3.82-2.42-6.71v-10.88h5.54v10.71
					c0,1.66,0.33,2.85,0.98,3.58c0.65,0.73,1.56,1.09,2.71,1.09s2.06-0.36,2.7-1.09c0.64-0.73,0.96-1.92,0.96-3.58v-10.71h5.48
					v10.88c0,2.89-0.82,5.13-2.45,6.71C69.98,184.24,67.72,185.03,64.85,185.03z"/>
				<path class="st0" d="M79.23,184.64v-19.57h8.92c1.79,0,3.34,0.29,4.64,0.87c1.3,0.58,2.31,1.41,3.01,2.5
					c0.7,1.09,1.05,2.37,1.05,3.84c0,1.51-0.35,2.8-1.05,3.87c-0.7,1.07-1.7,1.9-3.01,2.49c-1.31,0.59-2.85,0.88-4.64,0.88h-5.87
					l2.49-2.43v7.55H79.23z M84.76,177.73l-2.49-2.6h5.54c1.16,0,2.02-0.25,2.6-0.74c0.58-0.49,0.87-1.2,0.87-2.11
					c0-0.88-0.29-1.57-0.87-2.08s-1.44-0.77-2.6-0.77h-5.54l2.49-2.54V177.73z"/>
				<path class="st0" d="M98.86,184.64l8.64-19.57h5.45l8.67,19.57h-5.76l-6.77-16.86h2.18l-6.77,16.86H98.86z M103.58,180.81
					l1.43-4.05h9.56l1.43,4.05H103.58z"/>
				<path class="st0" d="M124.58,184.64v-19.57h4.56l8.08,13.31h-2.4l7.91-13.31h4.56l0.03,19.57h-5.09l-0.06-11.83h0.87l-5.9,9.9
					h-2.46l-6.07-9.9h1.06v11.83H124.58z"/>
				<path class="st0" d="M150.3,184.64l8.64-19.57h5.45l8.67,19.57h-5.76l-6.77-16.86h2.18l-6.77,16.86H150.3z M155.03,180.81
					l1.43-4.05h9.56l1.43,4.05H155.03z"/>
				<path class="st0" d="M176.03,184.64v-19.57h4.56l10.77,13.03h-2.15v-13.03h5.42v19.57h-4.56l-10.79-13.03h2.15v13.03H176.03z"/>
				<path class="st0" d="M199.96,184.64v-19.57h9.26c2.14,0,4.04,0.4,5.68,1.2c1.64,0.8,2.92,1.93,3.84,3.38s1.38,3.18,1.38,5.17
					c0,2.01-0.46,3.75-1.38,5.21c-0.92,1.46-2.2,2.6-3.84,3.4s-3.53,1.2-5.68,1.2H199.96z M205.5,180.22h3.44
					c1.14,0,2.12-0.21,2.95-0.64c0.83-0.43,1.48-1.05,1.94-1.86c0.47-0.81,0.7-1.77,0.7-2.87c0-1.14-0.23-2.1-0.7-2.89
					c-0.47-0.79-1.11-1.4-1.94-1.83c-0.83-0.43-1.81-0.64-2.95-0.64h-3.44V180.22z"/>
				<path class="st0" d="M230,184.64h-5.54v-19.57H230V184.64z M237.91,177h-8.33v-4.59h8.33V177z M237.52,165.06h5.54v19.57h-5.54
					V165.06z"/>
				<path class="st0" d="M248.39,184.64v-19.57h5.54v19.57H248.39z"/>
				<path class="st0" d="M259.27,184.64v-19.57h8.92c1.79,0,3.34,0.29,4.64,0.87c1.3,0.58,2.31,1.41,3.01,2.5
					c0.7,1.09,1.05,2.37,1.05,3.84c0,1.51-0.35,2.8-1.05,3.86s-1.7,1.88-3.01,2.45c-1.3,0.57-2.85,0.85-4.64,0.85h-5.87l2.49-2.35
					v7.55H259.27z M264.81,177.73l-2.49-2.57h5.54c1.16,0,2.02-0.25,2.6-0.75c0.58-0.5,0.87-1.21,0.87-2.13
					c0-0.88-0.29-1.57-0.87-2.08s-1.44-0.77-2.6-0.77h-5.54l2.49-2.54V177.73z M271.35,184.64l-4.87-7.13h5.9l4.89,7.13H271.35z"/>
				<path class="st0" d="M278.98,184.64l8.64-19.57h5.45l8.67,19.57h-5.76l-6.77-16.86h2.18l-6.77,16.86H278.98z M283.71,180.81
					l1.43-4.05h9.56l1.43,4.05H283.71z"/>
				<path class="st0" d="M302.33,184.64l8.64-19.57h5.45l8.67,19.57h-5.76l-6.77-16.86h2.18l-6.77,16.86H302.33z M307.06,180.81
					l1.43-4.05h9.56l1.43,4.05H307.06z"/>
			</g>
		</g>
		<g>
			<g>
				<path class="st1" d="M123.16,201.65c-0.25,0-0.44-0.07-0.57-0.21s-0.2-0.33-0.2-0.58v-7.07c0-0.26,0.07-0.45,0.2-0.59
					c0.13-0.14,0.32-0.2,0.57-0.2s0.44,0.07,0.57,0.2c0.13,0.14,0.2,0.33,0.2,0.59v2.83h4.36v-2.83c0-0.26,0.07-0.45,0.2-0.59
					c0.13-0.14,0.32-0.2,0.57-0.2s0.44,0.07,0.57,0.2c0.13,0.14,0.2,0.33,0.2,0.59v7.07c0,0.25-0.07,0.44-0.2,0.58
					c-0.13,0.14-0.32,0.21-0.57,0.21s-0.44-0.07-0.57-0.21c-0.13-0.14-0.2-0.33-0.2-0.58v-2.95h-4.36v2.95
					c0,0.25-0.06,0.44-0.19,0.58S123.42,201.65,123.16,201.65z"/>
				<path class="st1" d="M137.86,201.67c-0.82,0-1.53-0.18-2.14-0.54c-0.61-0.36-1.09-0.87-1.42-1.52c-0.34-0.65-0.5-1.42-0.5-2.3
					c0-0.66,0.1-1.26,0.29-1.79c0.19-0.53,0.47-0.99,0.82-1.37c0.36-0.38,0.78-0.67,1.28-0.88c0.5-0.2,1.06-0.31,1.67-0.31
					c0.82,0,1.54,0.18,2.15,0.53s1.08,0.86,1.42,1.51c0.34,0.65,0.5,1.41,0.5,2.29c0,0.66-0.1,1.26-0.29,1.8
					c-0.19,0.54-0.47,1-0.82,1.38c-0.36,0.38-0.78,0.68-1.28,0.88C139.04,201.57,138.48,201.67,137.86,201.67z M137.86,200.35
					c0.52,0,0.96-0.12,1.33-0.36c0.36-0.24,0.64-0.59,0.84-1.04c0.2-0.46,0.29-1,0.29-1.63c0-0.96-0.21-1.7-0.64-2.23
					c-0.43-0.53-1.03-0.79-1.82-0.79c-0.51,0-0.95,0.12-1.32,0.35c-0.37,0.24-0.65,0.58-0.85,1.03c-0.2,0.45-0.29,1-0.29,1.64
					c0,0.95,0.22,1.7,0.65,2.23C136.48,200.09,137.09,200.35,137.86,200.35z"/>
				<path class="st1" d="M146.61,201.65c-0.22,0-0.4-0.06-0.52-0.19s-0.18-0.3-0.18-0.53v-7.21c0-0.23,0.06-0.41,0.19-0.53
					c0.13-0.12,0.3-0.19,0.53-0.19c0.2,0,0.36,0.04,0.47,0.11c0.12,0.08,0.22,0.21,0.32,0.39l2.96,5.48h-0.38l2.96-5.48
					c0.1-0.18,0.2-0.31,0.31-0.39c0.11-0.08,0.27-0.11,0.47-0.11c0.22,0,0.4,0.06,0.52,0.19c0.12,0.12,0.18,0.3,0.18,0.53v7.21
					c0,0.22-0.06,0.4-0.17,0.53c-0.12,0.13-0.29,0.19-0.52,0.19c-0.22,0-0.4-0.06-0.52-0.19s-0.18-0.3-0.18-0.53v-5.56h0.26
					l-2.52,4.6c-0.08,0.14-0.16,0.24-0.25,0.3c-0.09,0.06-0.21,0.1-0.36,0.1c-0.15,0-0.28-0.03-0.37-0.1
					c-0.1-0.07-0.18-0.17-0.25-0.29l-2.54-4.61h0.29v5.57c0,0.22-0.06,0.4-0.17,0.53C147.02,201.59,146.84,201.65,146.61,201.65z"/>
				<path class="st1" d="M162.5,201.67c-0.82,0-1.53-0.18-2.14-0.54c-0.61-0.36-1.09-0.87-1.42-1.52c-0.34-0.65-0.5-1.42-0.5-2.3
					c0-0.66,0.1-1.26,0.29-1.79c0.19-0.53,0.47-0.99,0.82-1.37c0.36-0.38,0.78-0.67,1.28-0.88c0.5-0.2,1.06-0.31,1.67-0.31
					c0.82,0,1.54,0.18,2.15,0.53s1.08,0.86,1.42,1.51c0.34,0.65,0.5,1.41,0.5,2.29c0,0.66-0.1,1.26-0.29,1.8
					c-0.19,0.54-0.47,1-0.82,1.38c-0.36,0.38-0.78,0.68-1.28,0.88C163.67,201.57,163.11,201.67,162.5,201.67z M162.5,200.35
					c0.52,0,0.96-0.12,1.33-0.36c0.36-0.24,0.64-0.59,0.84-1.04c0.2-0.46,0.29-1,0.29-1.63c0-0.96-0.21-1.7-0.64-2.23
					c-0.43-0.53-1.03-0.79-1.82-0.79c-0.51,0-0.95,0.12-1.32,0.35c-0.37,0.24-0.65,0.58-0.85,1.03c-0.2,0.45-0.29,1-0.29,1.64
					c0,0.95,0.22,1.7,0.65,2.23C161.12,200.09,161.72,200.35,162.5,200.35z"/>
				<path class="st1" d="M171.34,201.55c-0.26,0-0.47-0.07-0.61-0.21c-0.14-0.14-0.21-0.34-0.21-0.61v-6.83
					c0-0.26,0.07-0.47,0.21-0.61c0.14-0.14,0.34-0.21,0.61-0.21h4.28c0.2,0,0.35,0.05,0.46,0.16c0.11,0.1,0.16,0.25,0.16,0.44
					c0,0.2-0.05,0.35-0.16,0.46c-0.11,0.11-0.26,0.16-0.46,0.16H172v2.33h3.36c0.21,0,0.36,0.05,0.47,0.16
					c0.1,0.1,0.16,0.26,0.16,0.46s-0.05,0.35-0.16,0.46c-0.1,0.1-0.26,0.16-0.47,0.16H172v2.46h3.62c0.2,0,0.35,0.05,0.46,0.16
					c0.11,0.1,0.16,0.26,0.16,0.46c0,0.2-0.05,0.35-0.16,0.46c-0.11,0.1-0.26,0.16-0.46,0.16H171.34z"/>
				<path class="st1" d="M183.88,201.67c-0.82,0-1.53-0.18-2.14-0.54c-0.61-0.36-1.09-0.87-1.42-1.52c-0.34-0.65-0.5-1.42-0.5-2.3
					c0-0.66,0.1-1.26,0.29-1.79c0.19-0.53,0.47-0.99,0.82-1.37c0.36-0.38,0.78-0.67,1.28-0.88c0.5-0.2,1.06-0.31,1.67-0.31
					c0.82,0,1.54,0.18,2.15,0.53c0.61,0.36,1.08,0.86,1.42,1.51s0.5,1.41,0.5,2.29c0,0.66-0.1,1.26-0.29,1.8
					c-0.19,0.54-0.47,1-0.82,1.38c-0.36,0.38-0.78,0.68-1.28,0.88C185.06,201.57,184.5,201.67,183.88,201.67z M183.88,200.35
					c0.52,0,0.96-0.12,1.33-0.36c0.36-0.24,0.64-0.59,0.84-1.04c0.2-0.46,0.29-1,0.29-1.63c0-0.96-0.21-1.7-0.64-2.23
					c-0.43-0.53-1.03-0.79-1.82-0.79c-0.51,0-0.95,0.12-1.32,0.35c-0.37,0.24-0.65,0.58-0.85,1.03s-0.29,1-0.29,1.64
					c0,0.95,0.22,1.7,0.65,2.23C182.5,200.09,183.11,200.35,183.88,200.35z"/>
				<path class="st1" d="M201.5,201.67c-0.88,0-1.63-0.18-2.26-0.53c-0.63-0.36-1.11-0.86-1.45-1.51s-0.5-1.42-0.5-2.31
					c0-0.66,0.1-1.26,0.29-1.79c0.19-0.53,0.47-0.99,0.83-1.37c0.36-0.38,0.8-0.67,1.33-0.88c0.52-0.2,1.11-0.31,1.77-0.31
					c0.44,0,0.87,0.06,1.3,0.17c0.42,0.11,0.8,0.27,1.12,0.48c0.17,0.1,0.28,0.23,0.34,0.38c0.06,0.15,0.07,0.29,0.04,0.43
					c-0.03,0.14-0.1,0.26-0.2,0.35c-0.1,0.1-0.22,0.15-0.37,0.16c-0.15,0.01-0.31-0.04-0.49-0.15c-0.25-0.16-0.52-0.28-0.8-0.35
					c-0.29-0.07-0.58-0.11-0.88-0.11c-0.57,0-1.05,0.12-1.44,0.35c-0.39,0.23-0.69,0.57-0.89,1.01c-0.2,0.44-0.3,0.98-0.3,1.62
					c0,0.63,0.1,1.17,0.3,1.62c0.2,0.45,0.5,0.79,0.89,1.02c0.39,0.23,0.87,0.35,1.44,0.35c0.3,0,0.6-0.04,0.9-0.11
					c0.3-0.08,0.58-0.19,0.84-0.35c0.18-0.1,0.33-0.15,0.47-0.14c0.14,0.01,0.26,0.06,0.35,0.15c0.1,0.09,0.16,0.2,0.19,0.33
					s0.02,0.27-0.02,0.41c-0.05,0.14-0.14,0.26-0.29,0.37c-0.32,0.23-0.7,0.41-1.15,0.53C202.4,201.61,201.96,201.67,201.5,201.67z"
					/>
				<path class="st1" d="M208.21,201.65c-0.19,0-0.35-0.04-0.46-0.13s-0.19-0.21-0.21-0.35c-0.02-0.15,0-0.31,0.08-0.5l3.17-7.02
					c0.1-0.23,0.23-0.4,0.38-0.5c0.15-0.1,0.32-0.15,0.51-0.15c0.18,0,0.35,0.05,0.5,0.15c0.15,0.1,0.27,0.27,0.38,0.5l3.18,7.02
					c0.09,0.18,0.12,0.35,0.1,0.5c-0.02,0.15-0.09,0.27-0.2,0.35s-0.26,0.13-0.44,0.13c-0.22,0-0.4-0.05-0.52-0.16
					c-0.12-0.11-0.23-0.27-0.33-0.5l-0.78-1.81l0.65,0.42h-5.06l0.65-0.42l-0.77,1.81c-0.1,0.23-0.21,0.4-0.32,0.5
					C208.57,201.6,208.41,201.65,208.21,201.65z M211.65,194.76l-1.68,4l-0.31-0.38h4.01l-0.3,0.38l-1.69-4H211.65z"/>
				<path class="st1" d="M220.22,201.65c-0.25,0-0.44-0.07-0.57-0.21s-0.2-0.33-0.2-0.58v-6.98c0-0.26,0.07-0.45,0.2-0.58
					s0.33-0.2,0.58-0.2h2.89c0.93,0,1.64,0.22,2.15,0.67s0.76,1.07,0.76,1.87c0,0.52-0.11,0.97-0.34,1.34
					c-0.23,0.38-0.56,0.66-0.99,0.86s-0.96,0.3-1.57,0.3l0.11-0.18h0.4c0.33,0,0.61,0.08,0.86,0.24c0.24,0.16,0.46,0.41,0.64,0.76
					l0.9,1.67c0.1,0.17,0.14,0.33,0.13,0.49c-0.01,0.16-0.07,0.29-0.18,0.39c-0.11,0.1-0.28,0.15-0.49,0.15s-0.39-0.05-0.53-0.14
					c-0.14-0.09-0.26-0.23-0.36-0.43l-1.21-2.23c-0.14-0.27-0.31-0.45-0.51-0.55c-0.2-0.09-0.45-0.14-0.75-0.14h-1.14v2.69
					c0,0.25-0.06,0.44-0.19,0.58S220.47,201.65,220.22,201.65z M220.99,197.03h1.87c0.55,0,0.97-0.11,1.25-0.34
					c0.28-0.23,0.43-0.57,0.43-1.03c0-0.45-0.14-0.79-0.43-1.01c-0.28-0.23-0.7-0.34-1.25-0.34h-1.87V197.03z"/>
				<path class="st1" d="M230.9,201.55c-0.26,0-0.47-0.07-0.61-0.21s-0.21-0.34-0.21-0.61v-6.83c0-0.26,0.07-0.47,0.21-0.61
					s0.34-0.21,0.61-0.21h4.28c0.2,0,0.35,0.05,0.46,0.16c0.11,0.1,0.16,0.25,0.16,0.44c0,0.2-0.05,0.35-0.16,0.46
					c-0.11,0.11-0.26,0.16-0.46,0.16h-3.62v2.33h3.36c0.21,0,0.36,0.05,0.47,0.16c0.1,0.1,0.16,0.26,0.16,0.46s-0.05,0.35-0.16,0.46
					c-0.1,0.1-0.26,0.16-0.47,0.16h-3.36v2.46h3.62c0.2,0,0.35,0.05,0.46,0.16c0.11,0.1,0.16,0.26,0.16,0.46
					c0,0.2-0.05,0.35-0.16,0.46c-0.11,0.1-0.26,0.16-0.46,0.16H230.9z"/>
			</g>
		</g>
		<g>
			<line class="st2" x1="68.85" y1="197.76" x2="115.89" y2="197.76"/>
			<line class="st2" x1="244.11" y1="197.76" x2="291.15" y2="197.76"/>
		</g>
	</g>
	<g>
		<g>
			<path class="st1" d="M169.04,144.76h-5.13c-9.88,0-17.89-8.01-17.89-17.89v-3.83h5.13c9.88,0,17.89,8.01,17.89,17.89V144.76z"/>
			<path class="st1" d="M191.88,144.42h5.13c9.88,0,17.89-8.01,17.89-17.89v-3.83h-5.13c-9.88,0-17.89,8.01-17.89,17.89V144.42z"/>
			<path class="st1" d="M192.16,126.53l0.38-0.02c3.65-0.19,6.44-3.14,6.24-6.58l-0.17-2.97l-0.38,0.02
				c-3.65,0.19-6.44,3.14-6.24,6.58L192.16,126.53z"/>
			<path class="st1" d="M211.2,143.09l0.34,0.17c3.25,1.58,7.24,0.38,8.91-2.69l1.45-2.65l-0.34-0.17
				c-3.25-1.58-7.24-0.38-8.91,2.69L211.2,143.09z"/>
			<path class="st1" d="M150.08,142.75l-0.34,0.17c-3.25,1.58-7.24,0.38-8.91-2.69l-1.45-2.65l0.34-0.17
				c3.25-1.58,7.24-0.38,8.91,2.69L150.08,142.75z"/>
			<path class="st1" d="M168.4,126.52l-0.38-0.02c-3.65-0.19-6.44-3.14-6.24-6.58l0.17-2.97l0.38,0.02
				c3.65,0.19,6.44,3.14,6.24,6.58L168.4,126.52z"/>
			<path class="st1" d="M179.82,140.08l3.26-3.07c7.19-6.79,7.19-17.79,0-24.58l-3.26-3.07l-3.26,3.07
				c-7.19,6.79-7.19,17.79,0,24.58L179.82,140.08z"/>
			<path class="st1" d="M160.63,155.11l-2.87-3.4c-6.34-7.5-17.93-8.73-25.89-2.75l-3.6,2.71l2.87,3.4
				c6.34,7.5,17.93,8.73,25.89,2.75L160.63,155.11z"/>
			<path class="st1" d="M199.37,155.11l2.87-3.4c6.34-7.5,17.93-8.73,25.89-2.75l3.6,2.71l-2.87,3.4
				c-6.34,7.5-17.93,8.73-25.89,2.75L199.37,155.11z"/>
			<path class="st1" d="M177.28,148.28l-1.52-0.44c-3.17-0.92-4.95-4.1-3.97-7.09l0.47-1.43l1.52,0.44c3.17,0.92,4.95,4.1,3.97,7.09
				L177.28,148.28z"/>
			<path class="st1" d="M183.68,148.19l1.52-0.44c3.17-0.92,4.95-4.1,3.97-7.09l-0.47-1.43l-1.52,0.44
				c-3.17,0.92-4.95,4.1-3.97,7.09L183.68,148.19z"/>
			<path class="st1" d="M189.48,153.26l1.49,0.53c3.11,1.11,6.57-0.37,7.74-3.3l0.56-1.4l-1.49-0.53c-3.11-1.11-6.57,0.37-7.74,3.3
				L189.48,153.26z"/>
			<path class="st1" d="M170.38,153.18l-1.49,0.53c-3.11,1.11-6.57-0.37-7.74-3.3l-0.56-1.4l1.49-0.53c3.11-1.11,6.57,0.37,7.74,3.3
				L170.38,153.18z"/>
		</g>
	</g>
</g>
</svg>
