<?xml version="1.0" encoding="utf-8"?>
<!-- Generator: Adobe Illustrator 25.0.0, SVG Export Plug-In . SVG Version: 6.00 Build 0)  -->
<svg version="1.1" id="Layer_1" xmlns="http://www.w3.org/2000/svg" xmlns:xlink="http://www.w3.org/1999/xlink" x="0px" y="0px"
	 viewBox="0 0 360 360" style="enable-background:new 0 0 360 360;" xml:space="preserve">
<style type="text/css">
	.st0{fill:none;}
	.st1{fill:#95D82B;}
	.st2{fill:#1875BB;}
	.st3{fill:#8DC73F;}
	.st4{font-family:'Poppins-Medium';}
	.st5{font-size:3.0617px;}
	.st6{font-family:'Poppins-SemiBold';}
	.st7{font-size:7.0165px;}
</style>
<g>
	<g>
		<path id="SVGID_x5F_1_x5F_" class="st0" d="M169.34,296.7c-62.37-5.95-108.2-60.4-102.36-121.62S128.12,69.06,190.5,75.02
			c62.37,5.95,108.2,60.4,102.36,121.62S231.71,302.65,169.34,296.7z"/>
		<text>		<textPath  xlink:href="#SVGID_x5F_1_x5F_" startOffset="36.2303%">
<tspan  class="st2" style="font-family:'Dutch801BT-ExtraBold'; font-size:13.6967px; letter-spacing:264.59;">SIMILIA•SIMILIBUS•CURENTUR</tspan>		</textPath>
</text>
	</g>
	<g>
		<g>
			<path class="st1" d="M170.37,122.83h-4.55c-10.05,0-18.2-8.15-18.2-18.2v-4.55h4.55c10.05,0,18.2,8.15,18.2,18.2V122.83z"/>
			<path class="st1" d="M192.94,122.48h4.55c10.05,0,18.2-8.15,18.2-18.2v-4.55h-4.55c-10.05,0-18.2,8.15-18.2,18.2V122.48z"/>
			<path class="st1" d="M193.21,103.74l0.38-0.02c3.61-0.2,6.37-3.28,6.17-6.89l-0.17-3.11l-0.38,0.02
				c-3.61,0.2-6.37,3.28-6.17,6.89L193.21,103.74z"/>
			<path class="st1" d="M212.03,121.09l0.34,0.17c3.21,1.66,7.15,0.4,8.81-2.81l1.43-2.77l-0.34-0.17c-3.21-1.66-7.15-0.4-8.81,2.81
				L212.03,121.09z"/>
			<path class="st1" d="M151.63,120.73l-0.34,0.17c-3.21,1.66-7.15,0.4-8.81-2.81l-1.43-2.77l0.34-0.17
				c3.21-1.66,7.15-0.4,8.81,2.81L151.63,120.73z"/>
			<path class="st1" d="M154.54,144.05l-0.12,0.36c-1.1,3.44-4.78,5.34-8.22,4.24l-2.97-0.95l0.12-0.36
				c1.1-3.44,4.78-5.34,8.22-4.24L154.54,144.05z"/>
			<path class="st1" d="M209.45,144.05l0.12,0.36c1.1,3.44,4.78,5.34,8.22,4.24l2.97-0.95l-0.12-0.36c-1.1-3.44-4.78-5.34-8.22-4.24
				L209.45,144.05z"/>
			<path class="st1" d="M169.73,103.73l-0.38-0.02c-3.61-0.2-6.37-3.28-6.17-6.89l0.17-3.11l0.38,0.02c3.61,0.2,6.37,3.28,6.17,6.89
				L169.73,103.73z"/>
			<path class="st1" d="M181.02,117.93l3.22-3.22c7.11-7.11,7.11-18.63,0-25.74l-3.22-3.22l-3.22,3.22
				c-7.11,7.11-7.11,18.63,0,25.74L181.02,117.93z"/>
			<path class="st1" d="M162.06,133.68l-2.84-3.56c-6.27-7.86-17.72-9.15-25.58-2.88l-3.56,2.84l2.84,3.56
				c6.27,7.86,17.72,9.15,25.58,2.88L162.06,133.68z"/>
			<path class="st1" d="M200.34,133.68l2.84-3.56c6.27-7.86,17.72-9.15,25.58-2.88l3.56,2.84l-2.84,3.56
				c-6.27,7.86-17.72,9.15-25.58,2.88L200.34,133.68z"/>
			<path class="st1" d="M178.52,126.53l-1.5-0.46c-3.13-0.97-4.89-4.29-3.92-7.43l0.46-1.5l1.5,0.46c3.13,0.97,4.89,4.29,3.92,7.43
				L178.52,126.53z"/>
			<path class="st1" d="M184.84,126.42l1.5-0.46c3.13-0.97,4.89-4.29,3.92-7.43l-0.46-1.5l-1.5,0.46c-3.13,0.97-4.89,4.29-3.92,7.43
				L184.84,126.42z"/>
			<path class="st1" d="M190.57,131.74l1.47,0.55c3.07,1.16,6.49-0.39,7.65-3.46l0.55-1.47l-1.47-0.55
				c-3.07-1.16-6.49,0.39-7.65,3.46L190.57,131.74z"/>
			<path class="st1" d="M171.69,131.65l-1.47,0.55c-3.07,1.16-6.49-0.39-7.65-3.46l-0.55-1.47l1.47-0.55
				c3.07-1.16,6.49,0.39,7.65,3.46L171.69,131.65z"/>
		</g>
	</g>
	<g>
		<g>
			<ellipse class="st2" cx="180.73" cy="142.17" rx="9.84" ry="10.11"/>
			<g>
				<path class="st2" d="M175.87,155.47c-0.51,0.06-1.04,0.23-1.54,0.16c-10.66-1.54-18.57,7.28-16.12,17.86
					c1.29,5.59,4.68,9.65,9.1,12.92c3.39,2.52,7.01,4.73,10.68,7.17c-1.38,1.03-2.77,2.13-4.23,3.13c-0.25,0.17-0.84,0.1-1.15-0.08
					c-6.66-3.71-13.04-7.81-17.23-14.41c-3.1-4.87-4.89-10.1-3.27-16.03c2.53-9.29,12.66-14.99,21.83-12.18
					c0.7,0.22,1.35,0.61,2.03,0.92C175.93,155.12,175.9,155.3,175.87,155.47z"/>
				<path class="st2" d="M206.08,182c-3.74,5.88-9.21,9.78-15.08,13.19c-0.15,0.09-0.31,0.17-0.45,0.27
					c-1.3,0.67-2.41,1.25-3.28,1.71c-3.55,1.86-4.58,2.46-5.62,3.17c-1.12,0.77-2.05,1.5-2.05,1.5c-0.47,0.35-0.94,0.72-1.39,1.1
					c-0.1,0.08-0.21,0.18-0.33,0.27c-0.13,0.1-0.26,0.21-0.39,0.34c-0.01,0-0.01,0.01-0.01,0.01c-1.34,1.14-2.64,2.36-3.83,3.65
					c-0.49,0.49-0.97,0.98-1.41,1.51c-0.33,0.36-0.63,0.75-0.91,1.14c-4.87,6.65-3.85,13.73,2.48,18.99
					c1.54,1.28,3.21,2.39,4.79,3.61c0.75,0.57,1.53,1.13,2.3,1.69c0.66-0.49,1.33-0.97,1.97-1.46c1.6-1.22,3.26-2.33,4.8-3.61
					c6.33-5.26,7.35-12.34,2.48-19c-1.72-2.34-4.07-4.24-6.17-6.31c-0.59-0.57-1.31-1.01-2.17-1.65c1.55-0.95,2.92-1.84,4.33-2.61
					c0.33-0.17,1-0.12,1.29,0.12c5.98,4.73,10.3,10.4,10.51,18.43c0.15,5.81-2.42,10.34-6.81,13.81c-2.18,1.74-4.5,3.28-6.84,4.79
					c0.96,0.75,1.89,1.52,2.77,2.34c5.26,4.97,6.43,11.5,3.54,17.98c-0.95,2.14-2.38,3.95-4.22,5.38c-0.16-0.13-0.32-0.25-0.48-0.39
					c0.37-0.53,0.75-1.06,1.11-1.59c1.92-2.82,2.77-5.9,2.33-9.31c-0.75-5.61-4.09-9.28-8.45-12.25c-4.51,3.02-8.01,6.72-8.77,12.49
					c-0.45,3.4,0.4,6.48,2.33,9.29c0.36,0.54,0.74,1.07,1.11,1.6c-0.16,0.14-0.32,0.26-0.48,0.39c-1.84-1.43-3.26-3.23-4.23-5.39
					c-2.88-6.47-1.71-13,3.55-17.97c0.97-0.92,2.01-1.77,3.08-2.59c-2.45-1.57-4.89-3.19-7.16-4.99c-4.38-3.48-6.94-8.02-6.8-13.82
					c0.03-0.8,0.08-3.05,0.95-5.77c1.9-5.97,6.28-9.77,9.21-12.32c0.86-0.75,1.59-1.32,2.04-1.65c0.79-0.56,1.59-1.12,2.42-1.66
					c2.75-1.84,5.46-3.43,8.07-4.83c2.73-1.78,5.4-3.49,7.94-5.38c4.42-3.27,7.81-7.33,9.11-12.92c2.44-10.59-5.47-19.4-16.12-17.86
					c-0.49,0.07-1.03-0.1-1.54-0.16c-0.03-0.17-0.05-0.35-0.08-0.52c0.67-0.33,1.33-0.72,2.03-0.94
					c9.16-2.81,19.29,2.89,21.83,12.19C210.97,171.9,209.18,177.13,206.08,182z"/>
			</g>
		</g>
	</g>
	<g>
		<g>
			<path class="st1" d="M298.02,168.32L298.02,168.32c-0.9,0-1.6,0.78-1.5,1.68c0.46,4.22,0.7,8.48,0.7,12.82
				c0,33.68-14.3,64.09-37.14,85.47c-1,0.94-0.32,2.61,1.05,2.61h0.01c0.39,0,0.77-0.15,1.05-0.42
				c23.42-21.94,38.07-53.13,38.07-87.67c0-4.45-0.24-8.84-0.72-13.15C299.46,168.9,298.8,168.32,298.02,168.32z M62.98,182.82
				c0-4.34,0.24-8.6,0.7-12.82c0.1-0.9-0.59-1.68-1.5-1.68h0c-0.78,0-1.44,0.58-1.52,1.35c-0.49,4.31-0.72,8.7-0.72,13.15
				c0,34.54,14.65,65.73,38.07,87.67c0.29,0.27,0.66,0.42,1.05,0.42h0.01c1.37,0,2.05-1.68,1.05-2.61
				C77.28,246.91,62.98,216.5,62.98,182.82z"/>
			<path class="st1" d="M66.76,210.7l-0.18,1.39l1.39,0.18c3.77,0.48,7.22-2.2,7.69-5.97l0.18-1.39l-1.39-0.18
				C70.68,204.26,67.23,206.93,66.76,210.7z"/>
			<path class="st1" d="M85.6,251.6l-0.18,1.39l1.39,0.18c3.77,0.48,7.22-2.2,7.69-5.97l0.18-1.39l-1.39-0.18
				C89.52,245.15,86.08,247.83,85.6,251.6z"/>
			<path class="st1" d="M49.83,187.03l-0.75-1.19l1.19-0.75c3.22-2.03,7.47-1.07,9.5,2.14l0.75,1.19l-1.19,0.75
				C56.11,191.2,51.86,190.24,49.83,187.03z"/>
			<path class="st1" d="M64.45,241.46l-1.03-0.95l0.95-1.03c2.57-2.8,6.93-2.98,9.73-0.41l1.03,0.95l-0.95,1.03
				C71.6,243.86,67.24,244.04,64.45,241.46z"/>
		</g>
		<g>
			<path class="st3" d="M293.08,210.7l0.18,1.39l-1.39,0.18c-3.77,0.48-7.22-2.2-7.69-5.97l-0.18-1.39l1.39-0.18
				C289.16,204.26,292.61,206.93,293.08,210.7z"/>
			<path class="st3" d="M274.24,251.6l0.18,1.39l-1.39,0.18c-3.77,0.48-7.22-2.2-7.69-5.97l-0.18-1.39l1.39-0.18
				C270.32,245.15,273.76,247.83,274.24,251.6z"/>
			<path class="st3" d="M310.01,187.03l0.75-1.19l-1.19-0.75c-3.22-2.03-7.47-1.07-9.5,2.14l-0.75,1.19l1.19,0.75
				C303.73,191.2,307.98,190.24,310.01,187.03z"/>
			<path class="st3" d="M295.39,241.46l1.03-0.95l-0.95-1.03c-2.57-2.8-6.93-2.98-9.73-0.41l-1.03,0.95l0.95,1.03
				C288.24,243.86,292.59,244.04,295.39,241.46z"/>
		</g>
	</g>
	<path id="SVGID_x5F_2_x5F_" class="st0" d="M292.14,229.43C317.6,167,288.56,96.14,227.3,71.15S95.72,76.52,70.26,138.94
		s3.57,133.29,64.84,158.27S266.68,291.85,292.14,229.43z"/>
	<text>	<textPath  xlink:href="#SVGID_x5F_2_x5F_" startOffset="93.3593%">
<tspan  class="st2" style="font-family:'Dutch801BT-ExtraBold'; font-size:14px; letter-spacing:264.59;">SUPAMANDHIRAA</tspan><tspan  class="st2" style="font-family:'BodoniMT-Bold'; font-size:14px; letter-spacing:264.59;"> </tspan>	</textPath>
</text>
	<g>
		<g>
			<g>
				<path class="st1" d="M159.2,275.16c-1.12-0.65-2.29-1.21-3.35-1.95c-2.64-1.86-3.33-4.57-1.87-7.25
					c0.13,0.28,0.24,0.5,0.33,0.74c0.66,1.77,1.86,3.05,3.58,3.81c1.03,0.46,2.07,0.91,3.16,1.2c6.06,1.59,9.58,5.61,11.2,11.46
					c0.31,1.11,0.57,2.23,0.89,3.52c-0.96-0.52-1.75-1-2.59-1.38c-2.98-1.33-6.2-1.54-9.38-1.95c-2.44-0.31-4.91-0.61-7.28-1.26
					c-5.58-1.53-7.82-6.45-8.21-10.65c-0.21-2.19,0-4.42-0.21-6.61c-0.15-1.56-0.71-3.09-1.07-4.61c1.15,0.45,2.33,1.28,2.86,2.64
					c0.83,2.14,1.48,4.36,2.17,6.56c0.59,1.9,1.26,3.74,3.05,4.89C154.56,275.67,156.84,275.64,159.2,275.16z"/>
				<path class="st1" d="M156.6,274.56c-3.73-0.3-5.38-2.46-6.22-5.47c-0.31-1.11-0.6-2.24-0.87-3.36
					c-0.47-1.91-1.27-3.64-2.71-5.04c0.06-0.07,0.13-0.13,0.19-0.2c0.58,0.51,1.32,0.92,1.7,1.55c0.65,1.06,1.13,2.24,1.58,3.41
					c0.35,0.91,0.54,1.88,0.83,2.82C151.97,271.06,153.72,273.1,156.6,274.56z"/>
			</g>
			<g>
				<path class="st1" d="M200.64,275.16c1.12-0.65,2.29-1.21,3.35-1.95c2.64-1.86,3.33-4.57,1.87-7.25
					c-0.13,0.28-0.24,0.5-0.33,0.74c-0.66,1.77-1.86,3.05-3.58,3.81c-1.03,0.46-2.07,0.91-3.16,1.2c-6.06,1.59-9.58,5.61-11.2,11.46
					c-0.31,1.11-0.57,2.23-0.89,3.52c0.96-0.52,1.75-1,2.59-1.38c2.98-1.33,6.2-1.54,9.38-1.95c2.44-0.31,4.91-0.61,7.28-1.26
					c5.58-1.53,7.82-6.45,8.21-10.65c0.21-2.19,0-4.42,0.21-6.61c0.15-1.56,0.71-3.09,1.07-4.61c-1.15,0.45-2.33,1.28-2.86,2.64
					c-0.83,2.14-1.48,4.36-2.17,6.56c-0.59,1.9-1.26,3.74-3.05,4.89C205.28,275.67,203,275.64,200.64,275.16z"/>
				<path class="st1" d="M203.24,274.56c3.73-0.3,5.38-2.46,6.22-5.47c0.31-1.11,0.6-2.24,0.87-3.36c0.47-1.91,1.27-3.64,2.71-5.04
					c-0.06-0.07-0.13-0.13-0.19-0.2c-0.58,0.51-1.32,0.92-1.7,1.55c-0.65,1.06-1.13,2.24-1.58,3.41c-0.35,0.91-0.54,1.88-0.83,2.82
					C207.87,271.06,206.11,273.1,203.24,274.56z"/>
			</g>
		</g>
		<text transform="matrix(1 0 0 1 176.3008 267.2266)" class="st2 st4 st5">SINCE</text>
		<text transform="matrix(1 0 0 1 172.1172 274.6231)" class="st2 st6 st7">2018</text>
	</g>
</g>
</svg>
